# xmcd
#
# Track frame offsets: 
#        150
#        9982
#        26307
#        39043
#        61396
#        78498
#        82389
#        92231
#        103810
#        114152
#        125920
#        134831
#        145442
#        148195
#        161959
#        171506
#        179505
#        184155
#        195520
#        208510
#        212492
#        221447
#        231169
#        240591
#        256366
#        270402
#
# Disc length: 3735 seconds
#
# Revision: 2
# Processed by: cddbd v1.5.2PL0 Copyright (c) Steve Scherf et al.
# Submitted via: ExactAudioCopyFreeDBPlugin 1.0
#
DISCID=850e951a
DTITLE=Various Artist - Bottle Let Me Down, The - Songs For Bumpy Wag
DTITLE=on Rides
DYEAR=2002
DGENRE=Alternative
TTITLE0=Rosie Flores - Red, Red Robin
TTITLE1=Kelly Hogan - Senor El Gato
TTITLE2=One Riot One Ranger - Hinky Dinky Dee
TTITLE3=Alejandro Escovedo - Sad and Dreamy (The Big 1-0)
TTITLE4=Robbie Fulks - Godfrey
TTITLE5=Jon Rauhouse and Norm Pratt - Camptown Races
TTITLE6=Jim and Jennie And The Pinetops - Down In The Arkansas
TTITLE7=Cornell Hurd Band, The - Don't Wipe Your Face On Your Shirt
TTITLE8=Handsome Family, The - Snowball
TTITLE9=Jane Baxter Miller - On Top Of Spaghetti
TTITLE10=Asylum Street Spankers - I Am My Own Grandpa
TTITLE11=Rex Hobart and The Misery Boys - It's Not Easy Being Green
TTITLE12=Jon Rauhouse and Norm Pratt - Cartoon Chicken
TTITLE13=Carolyn Mark - Three Billy Goats Gruff, The
TTITLE14=Jon Rauhouse and Andy Hopkins - Three Little Fishes
TTITLE15=Chris Ligon - Crazy Dazy
TTITLE16=Split Lip Rayfield - Weasel, The Bean, The Frog, and The Dog, T
TTITLE16=he
TTITLE17=Waco Brothers - Fox, The
TTITLE18=Nora O'Connor and Steve Frisbie - Cheese, Peas, Pickles and Banan
TTITLE18=as
TTITLE19=Jon Rauhouse and Norm Pratt - Turkey In The Straw
TTITLE20=Devil In A Woodpile - Funky Butt
TTITLE21=Meat Purveyors, The - Crawdad Song, The
TTITLE22=Kim Lenz - Down On The Farm
TTITLE23=Freakwater - Little Red Riding Hood
TTITLE24=Kelly Hogan - Rubber Duckie
TTITLE25=Trailer Bride - Lullaby
EXTD=
EXTT0=
EXTT1=
EXTT2=
EXTT3=
EXTT4=
EXTT5=
EXTT6=
EXTT7=
EXTT8=
EXTT9=
EXTT10=
EXTT11=
EXTT12=
EXTT13=
EXTT14=
EXTT15=
EXTT16=
EXTT17=
EXTT18=
EXTT19=
EXTT20=
EXTT21=
EXTT22=
EXTT23=
EXTT24=
EXTT25=
PLAYORDER=
